<svg width="124" height="75" xmlns="http://www.w3.org/2000/svg">
  <g fill="none" fill-rule="evenodd">
    <path fill="#FFF" d="M33.392 0l3.624 1.667.984 3.53-1.158 3.36L33.392 10l-3.249-1.639L28 5.196l1.62-3.674z" />
    <path fill="#7487A3" d="M74.696 3l1.812.833L77 5.598l-.579 1.68L74.696 8l-1.624-.82L72 5.599l.81-1.837z" />
    <path fill="#556B8B" d="M40.696 70l1.812.833.492 1.765-.579 1.68-1.725.722-1.624-.82L38 72.599l.81-1.837z" />
    <path fill="#7487A3" d="M4.314 37l2.899 1.334L8 41.157l-.926 2.688L4.314 45l-2.6-1.31L0 41.156l1.295-2.94zM49.314 32l2.899 1.334.787 2.823-.926 2.688L49.314 40l-2.6-1.31L45 36.156l1.295-2.94z" />
    <path fill="#556B8B" d="M99.696 56l1.812.833.492 1.765-.579 1.68-1.725.722-1.624-.82L97 58.599l.81-1.837zM112.696 37l1.812.833.492 1.765-.579 1.68-1.725.722-1.624-.82L110 39.599l.81-1.837zM82.696 37l1.812.833.492 1.765-.579 1.68-1.725.722-1.624-.82L80 39.599l.81-1.837zM122.618 57l1.087.5.295 1.059-.347 1.008-1.035.433-.975-.492-.643-.95.486-1.101z" />
  </g>
</svg>
