<svg width="530" height="380" xmlns="http://www.w3.org/2000/svg">
  <defs>
    <linearGradient x1="8.685%" y1="23.733%" x2="85.808%" y2="82.837%" id="media-illustration-a">
      <stop stop-color="#1688F7" stop-opacity=".48" offset="0%"/>
      <stop stop-color="#06101F" stop-opacity="0" offset="100%"/>
    </linearGradient>
    <linearGradient x1="-5.881%" y1="42.743%" x2="92.827%" y2="0%" id="media-illustration-b">
      <stop stop-color="#3FDB88" offset="0%"/>
      <stop stop-color="#78BAFB" stop-opacity="0" offset="100%"/>
    </linearGradient>
  </defs>
  <g fill="none" fill-rule="evenodd">
    <circle fill="url(#media-illustration-a)" cx="276" cy="190" r="190"/>
    <path d="M551.537 237.857c-73.787 61.801-117.197 90.657-130.23 86.569-19.552-6.133 9.14-19.504-15.204-42.174-16.229-15.113-89.027 2.342-218.392 52.365C64.847 373.514 2.309 361.511.095 298.607-2.118 235.704 34.212 185.168 109.085 147l353.631 4.164 88.82 69.736v16.957z" fill="url(#media-illustration-b)"/>
    <path fill="#FFF" d="M309.392 283l3.624 1.667.984 3.53-1.158 3.36-3.45 1.443-3.249-1.639-2.143-3.165 1.62-3.674z"/>
    <path fill="#556B8B" d="M371.696 292l1.812.833.492 1.765-.579 1.68-1.725.722-1.624-.82-1.072-1.582.81-1.837zM337.696 359l1.812.833.492 1.765-.579 1.68-1.725.722-1.624-.82-1.072-1.582.81-1.837z"/>
    <path fill="#7487A3" d="M315.314 315l2.899 1.334.787 2.823-.926 2.688-2.76 1.155-2.6-1.31-1.714-2.533 1.295-2.94zM346.314 321l2.899 1.334.787 2.823-.926 2.688-2.76 1.155-2.6-1.31-1.714-2.533 1.295-2.94z"/>
    <path fill="#556B8B" d="M373.696 364l1.812.833.492 1.765-.579 1.68-1.725.722-1.624-.82-1.072-1.582.81-1.837zM409.696 326l1.812.833.492 1.765-.579 1.68-1.725.722-1.624-.82-1.072-1.582.81-1.837zM379.696 326l1.812.833.492 1.765-.579 1.68-1.725.722-1.624-.82-1.072-1.582.81-1.837zM419.618 346l1.087.5.295 1.059-.347 1.008-1.035.433-.975-.492-.643-.95.486-1.101z"/>
  </g>
</svg>
